<svg width="393" height="398" viewBox="0 0 393 398" fill="none" xmlns="http://www.w3.org/2000/svg">
<circle cx="150" cy="150" r="150" fill="#191A3A"/>
<circle cx="150" cy="150" r="150" fill="#191A3A"/>
<circle cx="150" cy="150" r="150" fill="#191A3A"/>
<circle cx="150" cy="150" r="150" fill="#191A3A"/>
<circle cx="150" cy="150" r="150" fill="#191A3A"/>
<g filter="url(#filter0_d_93_10)">
<ellipse cx="150.5" cy="149.5" rx="81.5" ry="78.5" fill="#090E16"/>
</g>
<path d="M125.9 146.697C125.9 148.856 125.667 150.722 125.2 152.297C124.745 153.872 124.121 155.173 123.328 156.2C122.534 157.227 121.607 157.991 120.545 158.492C119.483 158.994 118.352 159.245 117.15 159.245C115.948 159.245 114.817 158.994 113.755 158.492C112.693 157.991 111.766 157.227 110.973 156.2C110.179 155.173 109.549 153.872 109.083 152.297C108.628 150.722 108.4 148.856 108.4 146.697C108.4 144.551 108.628 142.69 109.083 141.115C109.549 139.528 110.179 138.216 110.973 137.177C111.766 136.139 112.693 135.369 113.755 134.867C114.817 134.366 115.948 134.115 117.15 134.115C118.352 134.115 119.483 134.366 120.545 134.867C121.607 135.369 122.534 136.139 123.328 137.177C124.121 138.216 124.745 139.528 125.2 141.115C125.667 142.69 125.9 144.551 125.9 146.697ZM124.938 146.697C124.938 144.632 124.728 142.859 124.308 141.377C123.899 139.884 123.339 138.659 122.628 137.702C121.916 136.734 121.088 136.022 120.143 135.567C119.198 135.112 118.2 134.885 117.15 134.885C116.088 134.885 115.085 135.112 114.14 135.567C113.195 136.022 112.367 136.734 111.655 137.702C110.943 138.659 110.378 139.884 109.958 141.377C109.538 142.859 109.328 144.632 109.328 146.697C109.328 148.762 109.538 150.542 109.958 152.035C110.378 153.517 110.943 154.736 111.655 155.692C112.367 156.637 113.195 157.337 114.14 157.792C115.085 158.247 116.088 158.475 117.15 158.475C118.2 158.475 119.198 158.247 120.143 157.792C121.088 157.337 121.916 156.637 122.628 155.692C123.339 154.736 123.899 153.517 124.308 152.035C124.728 150.542 124.938 148.762 124.938 146.697ZM133.218 160.015C133.159 160.155 133.072 160.254 132.955 160.313C132.839 160.371 132.716 160.4 132.588 160.4H132.238L143.298 134.08C143.426 133.823 143.624 133.695 143.893 133.695H144.278L133.218 160.015ZM166.67 158.142C166.892 158.142 167.003 158.253 167.003 158.475V159H151.428V158.667C151.428 158.574 151.445 158.492 151.48 158.423C151.527 158.341 151.579 158.271 151.638 158.212L160.318 149.427C161.029 148.704 161.694 147.998 162.313 147.31C162.931 146.622 163.473 145.927 163.94 145.227C164.407 144.516 164.774 143.787 165.043 143.04C165.311 142.293 165.445 141.494 165.445 140.642C165.445 139.639 165.276 138.776 164.938 138.052C164.599 137.329 164.15 136.734 163.59 136.267C163.03 135.789 162.388 135.439 161.665 135.217C160.953 134.996 160.213 134.885 159.443 134.885C158.579 134.885 157.786 135.019 157.063 135.287C156.351 135.544 155.715 135.912 155.155 136.39C154.607 136.857 154.152 137.422 153.79 138.087C153.44 138.741 153.195 139.464 153.055 140.257C152.973 140.561 152.798 140.695 152.53 140.66L152.093 140.608C152.233 139.592 152.507 138.688 152.915 137.895C153.335 137.09 153.866 136.407 154.508 135.847C155.149 135.287 155.89 134.862 156.73 134.57C157.57 134.267 158.486 134.115 159.478 134.115C160.364 134.115 161.222 134.243 162.05 134.5C162.878 134.757 163.613 135.153 164.255 135.69C164.897 136.215 165.41 136.892 165.795 137.72C166.18 138.537 166.373 139.505 166.373 140.625C166.373 141.558 166.227 142.427 165.935 143.232C165.643 144.037 165.247 144.807 164.745 145.542C164.255 146.277 163.683 146.995 163.03 147.695C162.377 148.395 161.688 149.107 160.965 149.83L152.67 158.3C152.973 158.253 153.3 158.218 153.65 158.195C154.012 158.16 154.391 158.142 154.788 158.142H166.67ZM175.983 140.608C176.123 139.592 176.397 138.688 176.805 137.895C177.225 137.09 177.756 136.407 178.398 135.847C179.039 135.287 179.78 134.862 180.62 134.57C181.46 134.267 182.376 134.115 183.368 134.115C184.254 134.115 185.1 134.237 185.905 134.482C186.722 134.727 187.439 135.107 188.058 135.62C188.688 136.122 189.189 136.763 189.563 137.545C189.936 138.315 190.123 139.231 190.123 140.292C190.123 141.097 189.983 141.832 189.703 142.497C189.423 143.162 189.044 143.752 188.565 144.265C188.087 144.767 187.527 145.187 186.885 145.525C186.255 145.852 185.59 146.091 184.89 146.242C185.847 146.371 186.693 146.61 187.428 146.96C188.163 147.31 188.781 147.753 189.283 148.29C189.784 148.815 190.158 149.427 190.403 150.127C190.659 150.816 190.788 151.568 190.788 152.385C190.788 153.33 190.589 154.222 190.193 155.062C189.808 155.902 189.271 156.637 188.583 157.267C187.894 157.886 187.078 158.376 186.133 158.737C185.188 159.099 184.155 159.28 183.035 159.28C182.067 159.28 181.215 159.187 180.48 159C179.745 158.813 179.104 158.562 178.555 158.247C178.007 157.932 177.54 157.565 177.155 157.145C176.782 156.725 176.461 156.287 176.193 155.832C175.936 155.366 175.726 154.893 175.563 154.415C175.399 153.937 175.265 153.482 175.16 153.05L175.458 152.91C175.551 152.875 175.668 152.869 175.808 152.892C175.948 152.904 176.053 153.009 176.123 153.207C176.158 153.301 176.216 153.499 176.298 153.802C176.391 154.106 176.525 154.456 176.7 154.852C176.887 155.237 177.138 155.646 177.453 156.077C177.768 156.509 178.176 156.906 178.678 157.267C179.179 157.629 179.78 157.927 180.48 158.16C181.192 158.393 182.038 158.51 183.018 158.51C184.161 158.51 185.159 158.323 186.01 157.95C186.874 157.565 187.591 157.075 188.163 156.48C188.734 155.885 189.16 155.226 189.44 154.503C189.732 153.779 189.878 153.079 189.878 152.402C189.878 151.597 189.738 150.851 189.458 150.163C189.189 149.463 188.752 148.856 188.145 148.342C187.55 147.829 186.774 147.427 185.818 147.135C184.873 146.843 183.718 146.692 182.353 146.68V146.032C183.426 145.997 184.389 145.84 185.24 145.56C186.092 145.28 186.809 144.895 187.393 144.405C187.988 143.903 188.437 143.314 188.74 142.637C189.055 141.961 189.213 141.214 189.213 140.397C189.213 139.441 189.049 138.612 188.723 137.912C188.396 137.212 187.959 136.641 187.41 136.197C186.874 135.754 186.249 135.427 185.538 135.217C184.838 134.996 184.103 134.885 183.333 134.885C182.469 134.885 181.676 135.019 180.953 135.287C180.229 135.544 179.588 135.912 179.028 136.39C178.479 136.857 178.024 137.422 177.663 138.087C177.301 138.741 177.05 139.464 176.91 140.257C176.864 140.421 176.805 140.537 176.735 140.608C176.665 140.666 176.56 140.683 176.42 140.66L175.983 140.608Z" fill="white"/>
<path d="M88.43 327.045V336H87.575V327.045H88.43ZM88.799 323.958C88.799 324.066 88.775 324.168 88.727 324.264C88.685 324.354 88.628 324.435 88.556 324.507C88.484 324.579 88.4 324.636 88.304 324.678C88.208 324.72 88.106 324.741 87.998 324.741C87.89 324.741 87.788 324.72 87.692 324.678C87.596 324.636 87.512 324.579 87.44 324.507C87.368 324.435 87.311 324.354 87.269 324.264C87.227 324.168 87.206 324.066 87.206 323.958C87.206 323.85 87.227 323.748 87.269 323.652C87.311 323.55 87.368 323.463 87.44 323.391C87.512 323.319 87.596 323.262 87.692 323.22C87.788 323.178 87.89 323.157 87.998 323.157C88.106 323.157 88.208 323.178 88.304 323.22C88.4 323.262 88.484 323.319 88.556 323.391C88.628 323.463 88.685 323.55 88.727 323.652C88.775 323.748 88.799 323.85 88.799 323.958ZM94.1028 328.611C94.5168 328.095 94.9938 327.681 95.5338 327.369C96.0798 327.057 96.6858 326.901 97.3518 326.901C97.8438 326.901 98.2758 326.979 98.6478 327.135C99.0258 327.291 99.3378 327.516 99.5838 327.81C99.8298 328.104 100.016 328.458 100.142 328.872C100.268 329.286 100.331 329.754 100.331 330.276V336H99.4668V330.276C99.4668 329.436 99.2748 328.779 98.8908 328.305C98.5068 327.825 97.9218 327.585 97.1358 327.585C96.5538 327.585 96.0078 327.735 95.4978 328.035C94.9938 328.329 94.5438 328.74 94.1478 329.268V336H93.2838V327.045H93.7608C93.9108 327.045 93.9978 327.12 94.0218 327.27L94.1028 328.611ZM111.001 328.242C110.971 328.272 110.941 328.299 110.911 328.323C110.887 328.341 110.851 328.35 110.803 328.35C110.743 328.35 110.662 328.311 110.56 328.233C110.458 328.149 110.32 328.059 110.146 327.963C109.972 327.867 109.753 327.78 109.489 327.702C109.231 327.618 108.916 327.576 108.544 327.576C108.028 327.576 107.569 327.669 107.167 327.855C106.771 328.035 106.435 328.296 106.159 328.638C105.883 328.98 105.673 329.394 105.529 329.88C105.391 330.366 105.322 330.912 105.322 331.518C105.322 332.148 105.394 332.706 105.538 333.192C105.688 333.678 105.898 334.089 106.168 334.425C106.438 334.755 106.765 335.007 107.149 335.181C107.533 335.355 107.959 335.442 108.427 335.442C108.859 335.442 109.219 335.391 109.507 335.289C109.801 335.187 110.041 335.076 110.227 334.956C110.419 334.836 110.569 334.725 110.677 334.623C110.785 334.521 110.875 334.47 110.947 334.47C111.019 334.47 111.079 334.5 111.127 334.56L111.352 334.848C111.214 335.028 111.04 335.196 110.83 335.352C110.62 335.508 110.383 335.643 110.119 335.757C109.855 335.871 109.567 335.958 109.255 336.018C108.949 336.084 108.628 336.117 108.292 336.117C107.722 336.117 107.2 336.015 106.726 335.811C106.258 335.601 105.853 335.301 105.511 334.911C105.175 334.515 104.911 334.032 104.719 333.462C104.533 332.892 104.44 332.244 104.44 331.518C104.44 330.834 104.53 330.21 104.71 329.646C104.89 329.082 105.154 328.596 105.502 328.188C105.85 327.78 106.273 327.465 106.771 327.243C107.275 327.015 107.851 326.901 108.499 326.901C109.081 326.901 109.597 326.994 110.047 327.18C110.497 327.366 110.89 327.618 111.226 327.936L111.001 328.242ZM118.641 326.901C119.283 326.901 119.856 327.012 120.36 327.234C120.87 327.45 121.299 327.759 121.647 328.161C121.995 328.563 122.259 329.049 122.439 329.619C122.625 330.183 122.718 330.816 122.718 331.518C122.718 332.22 122.625 332.853 122.439 333.417C122.259 333.981 121.995 334.464 121.647 334.866C121.299 335.268 120.87 335.577 120.36 335.793C119.856 336.009 119.283 336.117 118.641 336.117C117.999 336.117 117.423 336.009 116.913 335.793C116.409 335.577 115.98 335.268 115.626 334.866C115.278 334.464 115.011 333.981 114.825 333.417C114.645 332.853 114.555 332.22 114.555 331.518C114.555 330.816 114.645 330.183 114.825 329.619C115.011 329.049 115.278 328.563 115.626 328.161C115.98 327.759 116.409 327.45 116.913 327.234C117.423 327.012 117.999 326.901 118.641 326.901ZM118.641 335.442C119.175 335.442 119.64 335.352 120.036 335.172C120.438 334.986 120.771 334.722 121.035 334.38C121.305 334.038 121.506 333.627 121.638 333.147C121.77 332.661 121.836 332.118 121.836 331.518C121.836 330.924 121.77 330.384 121.638 329.898C121.506 329.412 121.305 328.998 121.035 328.656C120.771 328.308 120.438 328.041 120.036 327.855C119.64 327.669 119.175 327.576 118.641 327.576C118.107 327.576 117.639 327.669 117.237 327.855C116.841 328.041 116.508 328.308 116.238 328.656C115.974 328.998 115.773 329.412 115.635 329.898C115.503 330.384 115.437 330.924 115.437 331.518C115.437 332.118 115.503 332.661 115.635 333.147C115.773 333.627 115.974 334.038 116.238 334.38C116.508 334.722 116.841 334.986 117.237 335.172C117.639 335.352 118.107 335.442 118.641 335.442ZM126.932 336V327.045H127.409C127.559 327.045 127.646 327.12 127.67 327.27L127.751 328.566C128.099 328.068 128.498 327.666 128.948 327.36C129.398 327.054 129.905 326.901 130.469 326.901C131.123 326.901 131.645 327.09 132.035 327.468C132.431 327.846 132.698 328.371 132.836 329.043C132.944 328.677 133.094 328.359 133.286 328.089C133.484 327.819 133.709 327.597 133.961 327.423C134.213 327.243 134.486 327.111 134.78 327.027C135.08 326.943 135.386 326.901 135.698 326.901C136.142 326.901 136.541 326.976 136.895 327.126C137.249 327.27 137.549 327.486 137.795 327.774C138.041 328.062 138.23 328.416 138.362 328.836C138.494 329.256 138.56 329.736 138.56 330.276V336H137.705V330.276C137.705 329.4 137.516 328.734 137.138 328.278C136.76 327.816 136.22 327.585 135.518 327.585C135.206 327.585 134.906 327.642 134.618 327.756C134.336 327.87 134.084 328.041 133.862 328.269C133.646 328.491 133.472 328.77 133.34 329.106C133.214 329.442 133.151 329.832 133.151 330.276V336H132.287V330.276C132.287 329.406 132.113 328.74 131.765 328.278C131.423 327.816 130.919 327.585 130.253 327.585C129.767 327.585 129.317 327.729 128.903 328.017C128.489 328.305 128.12 328.704 127.796 329.214V336H126.932ZM144.08 334.047C144.254 334.305 144.434 334.524 144.62 334.704C144.812 334.878 145.013 335.022 145.223 335.136C145.433 335.244 145.655 335.322 145.889 335.37C146.129 335.418 146.381 335.442 146.645 335.442C147.173 335.442 147.635 335.346 148.031 335.154C148.427 334.962 148.757 334.692 149.021 334.344C149.291 333.99 149.492 333.57 149.624 333.084C149.762 332.592 149.831 332.052 149.831 331.464C149.831 330.132 149.585 329.154 149.093 328.53C148.601 327.9 147.896 327.585 146.978 327.585C146.384 327.585 145.847 327.738 145.367 328.044C144.887 328.35 144.458 328.776 144.08 329.322V334.047ZM144.044 328.656C144.44 328.116 144.902 327.687 145.43 327.369C145.964 327.051 146.561 326.892 147.221 326.892C148.319 326.892 149.174 327.273 149.786 328.035C150.404 328.797 150.713 329.94 150.713 331.464C150.713 332.118 150.626 332.73 150.452 333.3C150.284 333.864 150.032 334.356 149.696 334.776C149.366 335.19 148.958 335.517 148.472 335.757C147.992 335.997 147.437 336.117 146.807 336.117C146.201 336.117 145.676 336.006 145.232 335.784C144.788 335.562 144.404 335.235 144.08 334.803V339.168H143.216V327.045H143.693C143.843 327.045 143.93 327.12 143.954 327.27L144.044 328.656ZM155.893 322.905V336H155.029V322.905H155.893ZM167.003 330.618C167.003 330.138 166.934 329.709 166.796 329.331C166.664 328.947 166.475 328.623 166.229 328.359C165.983 328.095 165.689 327.894 165.347 327.756C165.011 327.612 164.639 327.54 164.231 327.54C163.769 327.54 163.355 327.612 162.989 327.756C162.623 327.9 162.305 328.107 162.035 328.377C161.771 328.647 161.558 328.971 161.396 329.349C161.234 329.727 161.126 330.15 161.072 330.618H167.003ZM161.027 331.167V331.338C161.027 332.01 161.105 332.601 161.261 333.111C161.417 333.621 161.639 334.05 161.927 334.398C162.215 334.74 162.563 334.998 162.971 335.172C163.379 335.346 163.835 335.433 164.339 335.433C164.789 335.433 165.179 335.385 165.509 335.289C165.839 335.187 166.115 335.076 166.337 334.956C166.565 334.83 166.745 334.719 166.877 334.623C167.009 334.521 167.105 334.47 167.165 334.47C167.243 334.47 167.303 334.5 167.345 334.56L167.579 334.848C167.435 335.028 167.243 335.196 167.003 335.352C166.769 335.508 166.505 335.643 166.211 335.757C165.923 335.865 165.611 335.952 165.275 336.018C164.945 336.084 164.612 336.117 164.276 336.117C163.664 336.117 163.106 336.012 162.602 335.802C162.098 335.586 161.666 335.274 161.306 334.866C160.946 334.458 160.667 333.96 160.469 333.372C160.277 332.778 160.181 332.1 160.181 331.338C160.181 330.696 160.271 330.105 160.451 329.565C160.637 329.019 160.901 328.551 161.243 328.161C161.591 327.765 162.014 327.456 162.512 327.234C163.016 327.012 163.586 326.901 164.222 326.901C164.726 326.901 165.194 326.988 165.626 327.162C166.058 327.336 166.433 327.591 166.751 327.927C167.069 328.257 167.318 328.665 167.498 329.151C167.684 329.637 167.777 330.195 167.777 330.825C167.777 330.957 167.759 331.047 167.723 331.095C167.687 331.143 167.627 331.167 167.543 331.167H161.027ZM174.32 336.144C173.714 336.144 173.24 335.976 172.898 335.64C172.562 335.304 172.394 334.785 172.394 334.083V327.963H171.107C171.041 327.963 170.987 327.945 170.945 327.909C170.903 327.873 170.882 327.822 170.882 327.756V327.423L172.412 327.315L172.628 324.111C172.64 324.057 172.664 324.009 172.7 323.967C172.736 323.925 172.787 323.904 172.853 323.904H173.258V327.324H176.084V327.963H173.258V334.038C173.258 334.284 173.288 334.497 173.348 334.677C173.414 334.851 173.501 334.995 173.609 335.109C173.723 335.223 173.855 335.307 174.005 335.361C174.155 335.415 174.317 335.442 174.491 335.442C174.707 335.442 174.893 335.412 175.049 335.352C175.205 335.286 175.34 335.217 175.454 335.145C175.568 335.067 175.661 334.998 175.733 334.938C175.805 334.872 175.862 334.839 175.904 334.839C175.952 334.839 176 334.869 176.048 334.929L176.282 335.307C176.054 335.559 175.763 335.763 175.409 335.919C175.061 336.069 174.698 336.144 174.32 336.144ZM186.089 330.618C186.089 330.138 186.02 329.709 185.882 329.331C185.75 328.947 185.561 328.623 185.315 328.359C185.069 328.095 184.775 327.894 184.433 327.756C184.097 327.612 183.725 327.54 183.317 327.54C182.855 327.54 182.441 327.612 182.075 327.756C181.709 327.9 181.391 328.107 181.121 328.377C180.857 328.647 180.644 328.971 180.482 329.349C180.32 329.727 180.212 330.15 180.158 330.618H186.089ZM180.113 331.167V331.338C180.113 332.01 180.191 332.601 180.347 333.111C180.503 333.621 180.725 334.05 181.013 334.398C181.301 334.74 181.649 334.998 182.057 335.172C182.465 335.346 182.921 335.433 183.425 335.433C183.875 335.433 184.265 335.385 184.595 335.289C184.925 335.187 185.201 335.076 185.423 334.956C185.651 334.83 185.831 334.719 185.963 334.623C186.095 334.521 186.191 334.47 186.251 334.47C186.329 334.47 186.389 334.5 186.431 334.56L186.665 334.848C186.521 335.028 186.329 335.196 186.089 335.352C185.855 335.508 185.591 335.643 185.297 335.757C185.009 335.865 184.697 335.952 184.361 336.018C184.031 336.084 183.698 336.117 183.362 336.117C182.75 336.117 182.192 336.012 181.688 335.802C181.184 335.586 180.752 335.274 180.392 334.866C180.032 334.458 179.753 333.96 179.555 333.372C179.363 332.778 179.267 332.1 179.267 331.338C179.267 330.696 179.357 330.105 179.537 329.565C179.723 329.019 179.987 328.551 180.329 328.161C180.677 327.765 181.1 327.456 181.598 327.234C182.102 327.012 182.672 326.901 183.308 326.901C183.812 326.901 184.28 326.988 184.712 327.162C185.144 327.336 185.519 327.591 185.837 327.927C186.155 328.257 186.404 328.665 186.584 329.151C186.77 329.637 186.863 330.195 186.863 330.825C186.863 330.957 186.845 331.047 186.809 331.095C186.773 331.143 186.713 331.167 186.629 331.167H180.113ZM200.128 336.144C199.522 336.144 199.048 335.976 198.706 335.64C198.37 335.304 198.202 334.785 198.202 334.083V327.963H196.915C196.849 327.963 196.795 327.945 196.753 327.909C196.711 327.873 196.69 327.822 196.69 327.756V327.423L198.22 327.315L198.436 324.111C198.448 324.057 198.472 324.009 198.508 323.967C198.544 323.925 198.595 323.904 198.661 323.904H199.066V327.324H201.892V327.963H199.066V334.038C199.066 334.284 199.096 334.497 199.156 334.677C199.222 334.851 199.309 334.995 199.417 335.109C199.531 335.223 199.663 335.307 199.813 335.361C199.963 335.415 200.125 335.442 200.299 335.442C200.515 335.442 200.701 335.412 200.857 335.352C201.013 335.286 201.148 335.217 201.262 335.145C201.376 335.067 201.469 334.998 201.541 334.938C201.613 334.872 201.67 334.839 201.712 334.839C201.76 334.839 201.808 334.869 201.856 334.929L202.09 335.307C201.862 335.559 201.571 335.763 201.217 335.919C200.869 336.069 200.506 336.144 200.128 336.144ZM210.663 331.671C209.811 331.701 209.076 331.77 208.458 331.878C207.846 331.98 207.339 332.121 206.937 332.301C206.541 332.481 206.247 332.697 206.055 332.949C205.863 333.195 205.767 333.477 205.767 333.795C205.767 334.095 205.815 334.356 205.911 334.578C206.013 334.794 206.145 334.974 206.307 335.118C206.475 335.256 206.667 335.358 206.883 335.424C207.099 335.49 207.324 335.523 207.558 335.523C207.906 335.523 208.224 335.487 208.512 335.415C208.806 335.337 209.076 335.232 209.322 335.1C209.574 334.962 209.808 334.8 210.024 334.614C210.24 334.428 210.453 334.227 210.663 334.011V331.671ZM205.398 328.314C205.866 327.846 206.358 327.492 206.874 327.252C207.39 327.012 207.975 326.892 208.629 326.892C209.109 326.892 209.529 326.97 209.889 327.126C210.249 327.276 210.546 327.495 210.78 327.783C211.02 328.065 211.2 328.41 211.32 328.818C211.44 329.22 211.5 329.67 211.5 330.168V336H211.158C210.978 336 210.867 335.916 210.825 335.748L210.699 334.596C210.453 334.836 210.207 335.052 209.961 335.244C209.721 335.436 209.469 335.598 209.205 335.73C208.941 335.862 208.656 335.964 208.35 336.036C208.044 336.108 207.708 336.144 207.342 336.144C207.036 336.144 206.739 336.099 206.451 336.009C206.163 335.919 205.905 335.781 205.677 335.595C205.455 335.409 205.275 335.172 205.137 334.884C205.005 334.59 204.939 334.239 204.939 333.831C204.939 333.453 205.047 333.102 205.263 332.778C205.479 332.454 205.818 332.172 206.28 331.932C206.742 331.692 207.333 331.5 208.053 331.356C208.779 331.212 209.649 331.128 210.663 331.104V330.168C210.663 329.34 210.483 328.704 210.123 328.26C209.769 327.81 209.241 327.585 208.539 327.585C208.107 327.585 207.738 327.645 207.432 327.765C207.132 327.885 206.877 328.017 206.667 328.161C206.457 328.305 206.286 328.437 206.154 328.557C206.022 328.677 205.911 328.737 205.821 328.737C205.755 328.737 205.701 328.722 205.659 328.692C205.617 328.662 205.581 328.623 205.551 328.575L205.398 328.314ZM221.092 328.152C221.044 328.236 220.975 328.278 220.885 328.278C220.819 328.278 220.735 328.242 220.633 328.17C220.531 328.092 220.393 328.008 220.219 327.918C220.051 327.822 219.841 327.738 219.589 327.666C219.337 327.588 219.031 327.549 218.671 327.549C218.347 327.549 218.05 327.597 217.78 327.693C217.516 327.783 217.288 327.906 217.096 328.062C216.91 328.218 216.766 328.401 216.664 328.611C216.562 328.815 216.511 329.031 216.511 329.259C216.511 329.541 216.583 329.775 216.727 329.961C216.871 330.147 217.057 330.306 217.285 330.438C217.519 330.57 217.786 330.684 218.086 330.78C218.386 330.876 218.689 330.972 218.995 331.068C219.307 331.164 219.613 331.272 219.913 331.392C220.213 331.506 220.477 331.65 220.705 331.824C220.939 331.998 221.128 332.211 221.272 332.463C221.416 332.715 221.488 333.021 221.488 333.381C221.488 333.771 221.419 334.134 221.281 334.47C221.143 334.806 220.939 335.097 220.669 335.343C220.405 335.589 220.078 335.784 219.688 335.928C219.298 336.072 218.851 336.144 218.347 336.144C217.717 336.144 217.174 336.045 216.718 335.847C216.262 335.643 215.854 335.379 215.494 335.055L215.692 334.749C215.722 334.701 215.755 334.665 215.791 334.641C215.833 334.617 215.887 334.605 215.953 334.605C216.031 334.605 216.124 334.653 216.232 334.749C216.346 334.845 216.496 334.95 216.682 335.064C216.868 335.172 217.096 335.274 217.366 335.37C217.642 335.466 217.981 335.514 218.383 335.514C218.761 335.514 219.094 335.463 219.382 335.361C219.67 335.253 219.91 335.109 220.102 334.929C220.294 334.749 220.438 334.539 220.534 334.299C220.636 334.053 220.687 333.795 220.687 333.525C220.687 333.225 220.615 332.976 220.471 332.778C220.327 332.58 220.138 332.412 219.904 332.274C219.67 332.136 219.403 332.019 219.103 331.923C218.809 331.827 218.506 331.731 218.194 331.635C217.882 331.539 217.576 331.434 217.276 331.32C216.982 331.206 216.718 331.062 216.484 330.888C216.25 330.714 216.061 330.504 215.917 330.258C215.773 330.006 215.701 329.694 215.701 329.322C215.701 329.004 215.77 328.698 215.908 328.404C216.046 328.11 216.241 327.852 216.493 327.63C216.751 327.408 217.063 327.231 217.429 327.099C217.795 326.967 218.206 326.901 218.662 326.901C219.208 326.901 219.691 326.979 220.111 327.135C220.537 327.291 220.924 327.531 221.272 327.855L221.092 328.152ZM226.479 322.905V330.888H226.893C226.977 330.888 227.055 330.876 227.127 330.852C227.205 330.828 227.289 330.771 227.379 330.681L230.97 327.27C231.03 327.198 231.096 327.144 231.168 327.108C231.24 327.066 231.33 327.045 231.438 327.045H232.194L228.243 330.798C228.135 330.924 228.018 331.023 227.892 331.095C227.988 331.143 228.069 331.2 228.135 331.266C228.207 331.326 228.276 331.398 228.342 331.482L232.491 336H231.744C231.66 336 231.582 335.988 231.51 335.964C231.444 335.934 231.381 335.877 231.321 335.793L227.559 331.761C227.511 331.707 227.463 331.662 227.415 331.626C227.373 331.59 227.328 331.563 227.28 331.545C227.232 331.521 227.175 331.506 227.109 331.5C227.049 331.488 226.974 331.482 226.884 331.482H226.479V336H225.615V322.905H226.479ZM240.899 328.152C240.851 328.236 240.782 328.278 240.692 328.278C240.626 328.278 240.542 328.242 240.44 328.17C240.338 328.092 240.2 328.008 240.026 327.918C239.858 327.822 239.648 327.738 239.396 327.666C239.144 327.588 238.838 327.549 238.478 327.549C238.154 327.549 237.857 327.597 237.587 327.693C237.323 327.783 237.095 327.906 236.903 328.062C236.717 328.218 236.573 328.401 236.471 328.611C236.369 328.815 236.318 329.031 236.318 329.259C236.318 329.541 236.39 329.775 236.534 329.961C236.678 330.147 236.864 330.306 237.092 330.438C237.326 330.57 237.593 330.684 237.893 330.78C238.193 330.876 238.496 330.972 238.802 331.068C239.114 331.164 239.42 331.272 239.72 331.392C240.02 331.506 240.284 331.65 240.512 331.824C240.746 331.998 240.935 332.211 241.079 332.463C241.223 332.715 241.295 333.021 241.295 333.381C241.295 333.771 241.226 334.134 241.088 334.47C240.95 334.806 240.746 335.097 240.476 335.343C240.212 335.589 239.885 335.784 239.495 335.928C239.105 336.072 238.658 336.144 238.154 336.144C237.524 336.144 236.981 336.045 236.525 335.847C236.069 335.643 235.661 335.379 235.301 335.055L235.499 334.749C235.529 334.701 235.562 334.665 235.598 334.641C235.64 334.617 235.694 334.605 235.76 334.605C235.838 334.605 235.931 334.653 236.039 334.749C236.153 334.845 236.303 334.95 236.489 335.064C236.675 335.172 236.903 335.274 237.173 335.37C237.449 335.466 237.788 335.514 238.19 335.514C238.568 335.514 238.901 335.463 239.189 335.361C239.477 335.253 239.717 335.109 239.909 334.929C240.101 334.749 240.245 334.539 240.341 334.299C240.443 334.053 240.494 333.795 240.494 333.525C240.494 333.225 240.422 332.976 240.278 332.778C240.134 332.58 239.945 332.412 239.711 332.274C239.477 332.136 239.21 332.019 238.91 331.923C238.616 331.827 238.313 331.731 238.001 331.635C237.689 331.539 237.383 331.434 237.083 331.32C236.789 331.206 236.525 331.062 236.291 330.888C236.057 330.714 235.868 330.504 235.724 330.258C235.58 330.006 235.508 329.694 235.508 329.322C235.508 329.004 235.577 328.698 235.715 328.404C235.853 328.11 236.048 327.852 236.3 327.63C236.558 327.408 236.87 327.231 237.236 327.099C237.602 326.967 238.013 326.901 238.469 326.901C239.015 326.901 239.498 326.979 239.918 327.135C240.344 327.291 240.731 327.531 241.079 327.855L240.899 328.152Z" fill="white"/>
<path d="M93.497 368.242C93.467 368.272 93.437 368.299 93.407 368.323C93.383 368.341 93.347 368.35 93.299 368.35C93.239 368.35 93.158 368.311 93.056 368.233C92.954 368.149 92.816 368.059 92.642 367.963C92.468 367.867 92.249 367.78 91.985 367.702C91.727 367.618 91.412 367.576 91.04 367.576C90.524 367.576 90.065 367.669 89.663 367.855C89.267 368.035 88.931 368.296 88.655 368.638C88.379 368.98 88.169 369.394 88.025 369.88C87.887 370.366 87.818 370.912 87.818 371.518C87.818 372.148 87.89 372.706 88.034 373.192C88.184 373.678 88.394 374.089 88.664 374.425C88.934 374.755 89.261 375.007 89.645 375.181C90.029 375.355 90.455 375.442 90.923 375.442C91.355 375.442 91.715 375.391 92.003 375.289C92.297 375.187 92.537 375.076 92.723 374.956C92.915 374.836 93.065 374.725 93.173 374.623C93.281 374.521 93.371 374.47 93.443 374.47C93.515 374.47 93.575 374.5 93.623 374.56L93.848 374.848C93.71 375.028 93.536 375.196 93.326 375.352C93.116 375.508 92.879 375.643 92.615 375.757C92.351 375.871 92.063 375.958 91.751 376.018C91.445 376.084 91.124 376.117 90.788 376.117C90.218 376.117 89.696 376.015 89.222 375.811C88.754 375.601 88.349 375.301 88.007 374.911C87.671 374.515 87.407 374.032 87.215 373.462C87.029 372.892 86.936 372.244 86.936 371.518C86.936 370.834 87.026 370.21 87.206 369.646C87.386 369.082 87.65 368.596 87.998 368.188C88.346 367.78 88.769 367.465 89.267 367.243C89.771 367.015 90.347 366.901 90.995 366.901C91.577 366.901 92.093 366.994 92.543 367.18C92.993 367.366 93.386 367.618 93.722 367.936L93.497 368.242ZM101.136 366.901C101.778 366.901 102.351 367.012 102.855 367.234C103.365 367.45 103.794 367.759 104.142 368.161C104.49 368.563 104.754 369.049 104.934 369.619C105.12 370.183 105.213 370.816 105.213 371.518C105.213 372.22 105.12 372.853 104.934 373.417C104.754 373.981 104.49 374.464 104.142 374.866C103.794 375.268 103.365 375.577 102.855 375.793C102.351 376.009 101.778 376.117 101.136 376.117C100.494 376.117 99.9185 376.009 99.4085 375.793C98.9045 375.577 98.4755 375.268 98.1215 374.866C97.7735 374.464 97.5065 373.981 97.3205 373.417C97.1405 372.853 97.0505 372.22 97.0505 371.518C97.0505 370.816 97.1405 370.183 97.3205 369.619C97.5065 369.049 97.7735 368.563 98.1215 368.161C98.4755 367.759 98.9045 367.45 99.4085 367.234C99.9185 367.012 100.494 366.901 101.136 366.901ZM101.136 375.442C101.67 375.442 102.135 375.352 102.531 375.172C102.933 374.986 103.266 374.722 103.53 374.38C103.8 374.038 104.001 373.627 104.133 373.147C104.265 372.661 104.331 372.118 104.331 371.518C104.331 370.924 104.265 370.384 104.133 369.898C104.001 369.412 103.8 368.998 103.53 368.656C103.266 368.308 102.933 368.041 102.531 367.855C102.135 367.669 101.67 367.576 101.136 367.576C100.602 367.576 100.134 367.669 99.7325 367.855C99.3365 368.041 99.0035 368.308 98.7335 368.656C98.4695 368.998 98.2685 369.412 98.1305 369.898C97.9985 370.384 97.9325 370.924 97.9325 371.518C97.9325 372.118 97.9985 372.661 98.1305 373.147C98.2685 373.627 98.4695 374.038 98.7335 374.38C99.0035 374.722 99.3365 374.986 99.7325 375.172C100.134 375.352 100.602 375.442 101.136 375.442ZM109.428 376V367.045H109.905C110.055 367.045 110.142 367.12 110.166 367.27L110.247 368.566C110.595 368.068 110.994 367.666 111.444 367.36C111.894 367.054 112.401 366.901 112.965 366.901C113.619 366.901 114.141 367.09 114.531 367.468C114.927 367.846 115.194 368.371 115.332 369.043C115.44 368.677 115.59 368.359 115.782 368.089C115.98 367.819 116.205 367.597 116.457 367.423C116.709 367.243 116.982 367.111 117.276 367.027C117.576 366.943 117.882 366.901 118.194 366.901C118.638 366.901 119.037 366.976 119.391 367.126C119.745 367.27 120.045 367.486 120.291 367.774C120.537 368.062 120.726 368.416 120.858 368.836C120.99 369.256 121.056 369.736 121.056 370.276V376H120.201V370.276C120.201 369.4 120.012 368.734 119.634 368.278C119.256 367.816 118.716 367.585 118.014 367.585C117.702 367.585 117.402 367.642 117.114 367.756C116.832 367.87 116.58 368.041 116.358 368.269C116.142 368.491 115.968 368.77 115.836 369.106C115.71 369.442 115.647 369.832 115.647 370.276V376H114.783V370.276C114.783 369.406 114.609 368.74 114.261 368.278C113.919 367.816 113.415 367.585 112.749 367.585C112.263 367.585 111.813 367.729 111.399 368.017C110.985 368.305 110.616 368.704 110.292 369.214V376H109.428ZM126.576 374.047C126.75 374.305 126.93 374.524 127.116 374.704C127.308 374.878 127.509 375.022 127.719 375.136C127.929 375.244 128.151 375.322 128.385 375.37C128.625 375.418 128.877 375.442 129.141 375.442C129.669 375.442 130.131 375.346 130.527 375.154C130.923 374.962 131.253 374.692 131.517 374.344C131.787 373.99 131.988 373.57 132.12 373.084C132.258 372.592 132.327 372.052 132.327 371.464C132.327 370.132 132.081 369.154 131.589 368.53C131.097 367.9 130.392 367.585 129.474 367.585C128.88 367.585 128.343 367.738 127.863 368.044C127.383 368.35 126.954 368.776 126.576 369.322V374.047ZM126.54 368.656C126.936 368.116 127.398 367.687 127.926 367.369C128.46 367.051 129.057 366.892 129.717 366.892C130.815 366.892 131.67 367.273 132.282 368.035C132.9 368.797 133.209 369.94 133.209 371.464C133.209 372.118 133.122 372.73 132.948 373.3C132.78 373.864 132.528 374.356 132.192 374.776C131.862 375.19 131.454 375.517 130.968 375.757C130.488 375.997 129.933 376.117 129.303 376.117C128.697 376.117 128.172 376.006 127.728 375.784C127.284 375.562 126.9 375.235 126.576 374.803V379.168H125.712V367.045H126.189C126.339 367.045 126.426 367.12 126.45 367.27L126.54 368.656ZM138.389 362.905V376H137.525V362.905H138.389ZM149.498 370.618C149.498 370.138 149.429 369.709 149.291 369.331C149.159 368.947 148.97 368.623 148.724 368.359C148.478 368.095 148.184 367.894 147.842 367.756C147.506 367.612 147.134 367.54 146.726 367.54C146.264 367.54 145.85 367.612 145.484 367.756C145.118 367.9 144.8 368.107 144.53 368.377C144.266 368.647 144.053 368.971 143.891 369.349C143.729 369.727 143.621 370.15 143.567 370.618H149.498ZM143.522 371.167V371.338C143.522 372.01 143.6 372.601 143.756 373.111C143.912 373.621 144.134 374.05 144.422 374.398C144.71 374.74 145.058 374.998 145.466 375.172C145.874 375.346 146.33 375.433 146.834 375.433C147.284 375.433 147.674 375.385 148.004 375.289C148.334 375.187 148.61 375.076 148.832 374.956C149.06 374.83 149.24 374.719 149.372 374.623C149.504 374.521 149.6 374.47 149.66 374.47C149.738 374.47 149.798 374.5 149.84 374.56L150.074 374.848C149.93 375.028 149.738 375.196 149.498 375.352C149.264 375.508 149 375.643 148.706 375.757C148.418 375.865 148.106 375.952 147.77 376.018C147.44 376.084 147.107 376.117 146.771 376.117C146.159 376.117 145.601 376.012 145.097 375.802C144.593 375.586 144.161 375.274 143.801 374.866C143.441 374.458 143.162 373.96 142.964 373.372C142.772 372.778 142.676 372.1 142.676 371.338C142.676 370.696 142.766 370.105 142.946 369.565C143.132 369.019 143.396 368.551 143.738 368.161C144.086 367.765 144.509 367.456 145.007 367.234C145.511 367.012 146.081 366.901 146.717 366.901C147.221 366.901 147.689 366.988 148.121 367.162C148.553 367.336 148.928 367.591 149.246 367.927C149.564 368.257 149.813 368.665 149.993 369.151C150.179 369.637 150.272 370.195 150.272 370.825C150.272 370.957 150.254 371.047 150.218 371.095C150.182 371.143 150.122 371.167 150.038 371.167H143.522ZM156.816 376.144C156.21 376.144 155.736 375.976 155.394 375.64C155.058 375.304 154.89 374.785 154.89 374.083V367.963H153.603C153.537 367.963 153.483 367.945 153.441 367.909C153.399 367.873 153.378 367.822 153.378 367.756V367.423L154.908 367.315L155.124 364.111C155.136 364.057 155.16 364.009 155.196 363.967C155.232 363.925 155.283 363.904 155.349 363.904H155.754V367.324H158.58V367.963H155.754V374.038C155.754 374.284 155.784 374.497 155.844 374.677C155.91 374.851 155.997 374.995 156.105 375.109C156.219 375.223 156.351 375.307 156.501 375.361C156.651 375.415 156.813 375.442 156.987 375.442C157.203 375.442 157.389 375.412 157.545 375.352C157.701 375.286 157.836 375.217 157.95 375.145C158.064 375.067 158.157 374.998 158.229 374.938C158.301 374.872 158.358 374.839 158.4 374.839C158.448 374.839 158.496 374.869 158.544 374.929L158.778 375.307C158.55 375.559 158.259 375.763 157.905 375.919C157.557 376.069 157.194 376.144 156.816 376.144ZM168.585 370.618C168.585 370.138 168.516 369.709 168.378 369.331C168.246 368.947 168.057 368.623 167.811 368.359C167.565 368.095 167.271 367.894 166.929 367.756C166.593 367.612 166.221 367.54 165.813 367.54C165.351 367.54 164.937 367.612 164.571 367.756C164.205 367.9 163.887 368.107 163.617 368.377C163.353 368.647 163.14 368.971 162.978 369.349C162.816 369.727 162.708 370.15 162.654 370.618H168.585ZM162.609 371.167V371.338C162.609 372.01 162.687 372.601 162.843 373.111C162.999 373.621 163.221 374.05 163.509 374.398C163.797 374.74 164.145 374.998 164.553 375.172C164.961 375.346 165.417 375.433 165.921 375.433C166.371 375.433 166.761 375.385 167.091 375.289C167.421 375.187 167.697 375.076 167.919 374.956C168.147 374.83 168.327 374.719 168.459 374.623C168.591 374.521 168.687 374.47 168.747 374.47C168.825 374.47 168.885 374.5 168.927 374.56L169.161 374.848C169.017 375.028 168.825 375.196 168.585 375.352C168.351 375.508 168.087 375.643 167.793 375.757C167.505 375.865 167.193 375.952 166.857 376.018C166.527 376.084 166.194 376.117 165.858 376.117C165.246 376.117 164.688 376.012 164.184 375.802C163.68 375.586 163.248 375.274 162.888 374.866C162.528 374.458 162.249 373.96 162.051 373.372C161.859 372.778 161.763 372.1 161.763 371.338C161.763 370.696 161.853 370.105 162.033 369.565C162.219 369.019 162.483 368.551 162.825 368.161C163.173 367.765 163.596 367.456 164.094 367.234C164.598 367.012 165.168 366.901 165.804 366.901C166.308 366.901 166.776 366.988 167.208 367.162C167.64 367.336 168.015 367.591 168.333 367.927C168.651 368.257 168.9 368.665 169.08 369.151C169.266 369.637 169.359 370.195 169.359 370.825C169.359 370.957 169.341 371.047 169.305 371.095C169.269 371.143 169.209 371.167 169.125 371.167H162.609ZM179.6 368.971C179.258 368.455 178.877 368.092 178.457 367.882C178.043 367.672 177.569 367.567 177.035 367.567C176.507 367.567 176.045 367.663 175.649 367.855C175.253 368.047 174.92 368.32 174.65 368.674C174.386 369.022 174.185 369.442 174.047 369.934C173.915 370.42 173.849 370.957 173.849 371.545C173.849 372.877 174.092 373.858 174.578 374.488C175.07 375.112 175.778 375.424 176.702 375.424C177.29 375.424 177.827 375.271 178.313 374.965C178.799 374.659 179.228 374.23 179.6 373.678V368.971ZM180.455 362.905V376H179.987C179.831 376 179.741 375.922 179.717 375.766L179.627 374.353C179.231 374.893 178.769 375.322 178.241 375.64C177.713 375.958 177.119 376.117 176.459 376.117C175.355 376.117 174.497 375.736 173.885 374.974C173.273 374.212 172.967 373.069 172.967 371.545C172.967 370.891 173.051 370.282 173.219 369.718C173.393 369.148 173.645 368.656 173.975 368.242C174.305 367.822 174.71 367.492 175.19 367.252C175.676 367.012 176.234 366.892 176.864 366.892C177.47 366.892 177.995 367.003 178.439 367.225C178.883 367.447 179.27 367.777 179.6 368.215V362.905H180.455ZM194.338 376.144C193.732 376.144 193.258 375.976 192.916 375.64C192.58 375.304 192.412 374.785 192.412 374.083V367.963H191.125C191.059 367.963 191.005 367.945 190.963 367.909C190.921 367.873 190.9 367.822 190.9 367.756V367.423L192.43 367.315L192.646 364.111C192.658 364.057 192.682 364.009 192.718 363.967C192.754 363.925 192.805 363.904 192.871 363.904H193.276V367.324H196.102V367.963H193.276V374.038C193.276 374.284 193.306 374.497 193.366 374.677C193.432 374.851 193.519 374.995 193.627 375.109C193.741 375.223 193.873 375.307 194.023 375.361C194.173 375.415 194.335 375.442 194.509 375.442C194.725 375.442 194.911 375.412 195.067 375.352C195.223 375.286 195.358 375.217 195.472 375.145C195.586 375.067 195.679 374.998 195.751 374.938C195.823 374.872 195.88 374.839 195.922 374.839C195.97 374.839 196.018 374.869 196.066 374.929L196.3 375.307C196.072 375.559 195.781 375.763 195.427 375.919C195.079 376.069 194.716 376.144 194.338 376.144ZM204.873 371.671C204.021 371.701 203.286 371.77 202.668 371.878C202.056 371.98 201.549 372.121 201.147 372.301C200.751 372.481 200.457 372.697 200.265 372.949C200.073 373.195 199.977 373.477 199.977 373.795C199.977 374.095 200.025 374.356 200.121 374.578C200.223 374.794 200.355 374.974 200.517 375.118C200.685 375.256 200.877 375.358 201.093 375.424C201.309 375.49 201.534 375.523 201.768 375.523C202.116 375.523 202.434 375.487 202.722 375.415C203.016 375.337 203.286 375.232 203.532 375.1C203.784 374.962 204.018 374.8 204.234 374.614C204.45 374.428 204.663 374.227 204.873 374.011V371.671ZM199.608 368.314C200.076 367.846 200.568 367.492 201.084 367.252C201.6 367.012 202.185 366.892 202.839 366.892C203.319 366.892 203.739 366.97 204.099 367.126C204.459 367.276 204.756 367.495 204.99 367.783C205.23 368.065 205.41 368.41 205.53 368.818C205.65 369.22 205.71 369.67 205.71 370.168V376H205.368C205.188 376 205.077 375.916 205.035 375.748L204.909 374.596C204.663 374.836 204.417 375.052 204.171 375.244C203.931 375.436 203.679 375.598 203.415 375.73C203.151 375.862 202.866 375.964 202.56 376.036C202.254 376.108 201.918 376.144 201.552 376.144C201.246 376.144 200.949 376.099 200.661 376.009C200.373 375.919 200.115 375.781 199.887 375.595C199.665 375.409 199.485 375.172 199.347 374.884C199.215 374.59 199.149 374.239 199.149 373.831C199.149 373.453 199.257 373.102 199.473 372.778C199.689 372.454 200.028 372.172 200.49 371.932C200.952 371.692 201.543 371.5 202.263 371.356C202.989 371.212 203.859 371.128 204.873 371.104V370.168C204.873 369.34 204.693 368.704 204.333 368.26C203.979 367.81 203.451 367.585 202.749 367.585C202.317 367.585 201.948 367.645 201.642 367.765C201.342 367.885 201.087 368.017 200.877 368.161C200.667 368.305 200.496 368.437 200.364 368.557C200.232 368.677 200.121 368.737 200.031 368.737C199.965 368.737 199.911 368.722 199.869 368.692C199.827 368.662 199.791 368.623 199.761 368.575L199.608 368.314ZM215.302 368.152C215.254 368.236 215.185 368.278 215.095 368.278C215.029 368.278 214.945 368.242 214.843 368.17C214.741 368.092 214.603 368.008 214.429 367.918C214.261 367.822 214.051 367.738 213.799 367.666C213.547 367.588 213.241 367.549 212.881 367.549C212.557 367.549 212.26 367.597 211.99 367.693C211.726 367.783 211.498 367.906 211.306 368.062C211.12 368.218 210.976 368.401 210.874 368.611C210.772 368.815 210.721 369.031 210.721 369.259C210.721 369.541 210.793 369.775 210.937 369.961C211.081 370.147 211.267 370.306 211.495 370.438C211.729 370.57 211.996 370.684 212.296 370.78C212.596 370.876 212.899 370.972 213.205 371.068C213.517 371.164 213.823 371.272 214.123 371.392C214.423 371.506 214.687 371.65 214.915 371.824C215.149 371.998 215.338 372.211 215.482 372.463C215.626 372.715 215.698 373.021 215.698 373.381C215.698 373.771 215.629 374.134 215.491 374.47C215.353 374.806 215.149 375.097 214.879 375.343C214.615 375.589 214.288 375.784 213.898 375.928C213.508 376.072 213.061 376.144 212.557 376.144C211.927 376.144 211.384 376.045 210.928 375.847C210.472 375.643 210.064 375.379 209.704 375.055L209.902 374.749C209.932 374.701 209.965 374.665 210.001 374.641C210.043 374.617 210.097 374.605 210.163 374.605C210.241 374.605 210.334 374.653 210.442 374.749C210.556 374.845 210.706 374.95 210.892 375.064C211.078 375.172 211.306 375.274 211.576 375.37C211.852 375.466 212.191 375.514 212.593 375.514C212.971 375.514 213.304 375.463 213.592 375.361C213.88 375.253 214.12 375.109 214.312 374.929C214.504 374.749 214.648 374.539 214.744 374.299C214.846 374.053 214.897 373.795 214.897 373.525C214.897 373.225 214.825 372.976 214.681 372.778C214.537 372.58 214.348 372.412 214.114 372.274C213.88 372.136 213.613 372.019 213.313 371.923C213.019 371.827 212.716 371.731 212.404 371.635C212.092 371.539 211.786 371.434 211.486 371.32C211.192 371.206 210.928 371.062 210.694 370.888C210.46 370.714 210.271 370.504 210.127 370.258C209.983 370.006 209.911 369.694 209.911 369.322C209.911 369.004 209.98 368.698 210.118 368.404C210.256 368.11 210.451 367.852 210.703 367.63C210.961 367.408 211.273 367.231 211.639 367.099C212.005 366.967 212.416 366.901 212.872 366.901C213.418 366.901 213.901 366.979 214.321 367.135C214.747 367.291 215.134 367.531 215.482 367.855L215.302 368.152ZM220.689 362.905V370.888H221.103C221.187 370.888 221.265 370.876 221.337 370.852C221.415 370.828 221.499 370.771 221.589 370.681L225.18 367.27C225.24 367.198 225.306 367.144 225.378 367.108C225.45 367.066 225.54 367.045 225.648 367.045H226.404L222.453 370.798C222.345 370.924 222.228 371.023 222.102 371.095C222.198 371.143 222.279 371.2 222.345 371.266C222.417 371.326 222.486 371.398 222.552 371.482L226.701 376H225.954C225.87 376 225.792 375.988 225.72 375.964C225.654 375.934 225.591 375.877 225.531 375.793L221.769 371.761C221.721 371.707 221.673 371.662 221.625 371.626C221.583 371.59 221.538 371.563 221.49 371.545C221.442 371.521 221.385 371.506 221.319 371.5C221.259 371.488 221.184 371.482 221.094 371.482H220.689V376H219.825V362.905H220.689ZM235.109 368.152C235.061 368.236 234.992 368.278 234.902 368.278C234.836 368.278 234.752 368.242 234.65 368.17C234.548 368.092 234.41 368.008 234.236 367.918C234.068 367.822 233.858 367.738 233.606 367.666C233.354 367.588 233.048 367.549 232.688 367.549C232.364 367.549 232.067 367.597 231.797 367.693C231.533 367.783 231.305 367.906 231.113 368.062C230.927 368.218 230.783 368.401 230.681 368.611C230.579 368.815 230.528 369.031 230.528 369.259C230.528 369.541 230.6 369.775 230.744 369.961C230.888 370.147 231.074 370.306 231.302 370.438C231.536 370.57 231.803 370.684 232.103 370.78C232.403 370.876 232.706 370.972 233.012 371.068C233.324 371.164 233.63 371.272 233.93 371.392C234.23 371.506 234.494 371.65 234.722 371.824C234.956 371.998 235.145 372.211 235.289 372.463C235.433 372.715 235.505 373.021 235.505 373.381C235.505 373.771 235.436 374.134 235.298 374.47C235.16 374.806 234.956 375.097 234.686 375.343C234.422 375.589 234.095 375.784 233.705 375.928C233.315 376.072 232.868 376.144 232.364 376.144C231.734 376.144 231.191 376.045 230.735 375.847C230.279 375.643 229.871 375.379 229.511 375.055L229.709 374.749C229.739 374.701 229.772 374.665 229.808 374.641C229.85 374.617 229.904 374.605 229.97 374.605C230.048 374.605 230.141 374.653 230.249 374.749C230.363 374.845 230.513 374.95 230.699 375.064C230.885 375.172 231.113 375.274 231.383 375.37C231.659 375.466 231.998 375.514 232.4 375.514C232.778 375.514 233.111 375.463 233.399 375.361C233.687 375.253 233.927 375.109 234.119 374.929C234.311 374.749 234.455 374.539 234.551 374.299C234.653 374.053 234.704 373.795 234.704 373.525C234.704 373.225 234.632 372.976 234.488 372.778C234.344 372.58 234.155 372.412 233.921 372.274C233.687 372.136 233.42 372.019 233.12 371.923C232.826 371.827 232.523 371.731 232.211 371.635C231.899 371.539 231.593 371.434 231.293 371.32C230.999 371.206 230.735 371.062 230.501 370.888C230.267 370.714 230.078 370.504 229.934 370.258C229.79 370.006 229.718 369.694 229.718 369.322C229.718 369.004 229.787 368.698 229.925 368.404C230.063 368.11 230.258 367.852 230.51 367.63C230.768 367.408 231.08 367.231 231.446 367.099C231.812 366.967 232.223 366.901 232.679 366.901C233.225 366.901 233.708 366.979 234.128 367.135C234.554 367.291 234.941 367.531 235.289 367.855L235.109 368.152Z" fill="white"/>
<g filter="url(#filter1_d_93_10)">
<circle cx="61" cy="332" r="9" fill="#32346F"/>
</g>
<g filter="url(#filter2_d_93_10)">
<circle cx="62" cy="370" r="8" fill="#DF4DAD"/>
</g>
<g filter="url(#filter3_d_93_10)">
<path d="M85.9415 16.0826C55.7811 27.0269 27.3524 59.8573 27.9407 63.2273C28.5291 66.5972 81.8613 110.804 81.8613 110.804C93.2859 89.4744 104.099 82.8563 125.957 74.1682L85.9415 16.0826Z" fill="#D52885"/>
<path d="M86.3533 15.7989L86.1341 15.4808L85.771 15.6126C70.6012 21.1172 55.8967 32.1108 45.0708 42.1283C39.6543 47.1403 35.1973 51.9186 32.1273 55.6612C30.5932 57.5313 29.3989 59.1508 28.6036 60.4169C28.2066 61.0488 27.9017 61.6042 27.7041 62.066C27.6053 62.2969 27.5289 62.5145 27.4827 62.7135C27.4378 62.9069 27.4136 63.115 27.4482 63.3133C27.4851 63.5245 27.6042 63.7416 27.7275 63.932C27.8607 64.1377 28.0409 64.3744 28.2587 64.6365C28.6952 65.1617 29.3099 65.8211 30.0711 66.5907C31.5951 68.1315 33.7345 70.1418 36.2778 72.4528C41.3661 77.0762 48.0923 82.9218 54.7966 88.6591C61.5016 94.397 68.188 100.029 73.1978 104.227C75.7028 106.326 77.7888 108.066 79.2486 109.282C79.9785 109.89 80.5518 110.366 80.9427 110.691L81.389 111.062L81.5035 111.156L81.5325 111.181L81.5398 111.187L81.5416 111.188C81.542 111.188 81.5422 111.189 81.8613 110.804L81.5422 111.189L82.0132 111.579L82.3021 111.04C87.9921 100.417 93.5115 93.4907 100.306 88.1383C107.11 82.779 115.22 78.9741 126.141 74.6329L126.724 74.4011L126.369 73.8846L86.3533 15.7989Z" stroke="#ED23A8"/>
</g>
<defs>
<filter id="filter0_d_93_10" x="39" y="41" width="223" height="217" filterUnits="userSpaceOnUse" color-interpolation-filters="sRGB">
<feFlood flood-opacity="0" result="BackgroundImageFix"/>
<feColorMatrix in="SourceAlpha" type="matrix" values="0 0 0 0 0 0 0 0 0 0 0 0 0 0 0 0 0 0 127 0" result="hardAlpha"/>
<feOffset/>
<feGaussianBlur stdDeviation="15"/>
<feComposite in2="hardAlpha" operator="out"/>
<feColorMatrix type="matrix" values="0 0 0 0 0.993701 0 0 0 0 0.970977 0 0 0 0 0.970977 0 0 0 0.25 0"/>
<feBlend mode="normal" in2="BackgroundImageFix" result="effect1_dropShadow_93_10"/>
<feBlend mode="normal" in="SourceGraphic" in2="effect1_dropShadow_93_10" result="shape"/>
</filter>
<filter id="filter1_d_93_10" x="32" y="303" width="58" height="58" filterUnits="userSpaceOnUse" color-interpolation-filters="sRGB">
<feFlood flood-opacity="0" result="BackgroundImageFix"/>
<feColorMatrix in="SourceAlpha" type="matrix" values="0 0 0 0 0 0 0 0 0 0 0 0 0 0 0 0 0 0 127 0" result="hardAlpha"/>
<feOffset/>
<feGaussianBlur stdDeviation="10"/>
<feComposite in2="hardAlpha" operator="out"/>
<feColorMatrix type="matrix" values="0 0 0 0 1 0 0 0 0 1 0 0 0 0 1 0 0 0 0.25 0"/>
<feBlend mode="normal" in2="BackgroundImageFix" result="effect1_dropShadow_93_10"/>
<feBlend mode="normal" in="SourceGraphic" in2="effect1_dropShadow_93_10" result="shape"/>
</filter>
<filter id="filter2_d_93_10" x="34" y="342" width="56" height="56" filterUnits="userSpaceOnUse" color-interpolation-filters="sRGB">
<feFlood flood-opacity="0" result="BackgroundImageFix"/>
<feColorMatrix in="SourceAlpha" type="matrix" values="0 0 0 0 0 0 0 0 0 0 0 0 0 0 0 0 0 0 127 0" result="hardAlpha"/>
<feOffset/>
<feGaussianBlur stdDeviation="10"/>
<feComposite in2="hardAlpha" operator="out"/>
<feColorMatrix type="matrix" values="0 0 0 0 1 0 0 0 0 1 0 0 0 0 1 0 0 0 0.25 0"/>
<feBlend mode="normal" in2="BackgroundImageFix" result="effect1_dropShadow_93_10"/>
<feBlend mode="normal" in="SourceGraphic" in2="effect1_dropShadow_93_10" result="shape"/>
</filter>
<filter id="filter3_d_93_10" x="16.9318" y="4.87903" width="120.56" height="117.475" filterUnits="userSpaceOnUse" color-interpolation-filters="sRGB">
<feFlood flood-opacity="0" result="BackgroundImageFix"/>
<feColorMatrix in="SourceAlpha" type="matrix" values="0 0 0 0 0 0 0 0 0 0 0 0 0 0 0 0 0 0 127 0" result="hardAlpha"/>
<feOffset/>
<feGaussianBlur stdDeviation="5"/>
<feComposite in2="hardAlpha" operator="out"/>
<feColorMatrix type="matrix" values="0 0 0 0 0.982471 0 0 0 0 0.867177 0 0 0 0 0.867177 0 0 0 0.25 0"/>
<feBlend mode="normal" in2="BackgroundImageFix" result="effect1_dropShadow_93_10"/>
<feBlend mode="normal" in="SourceGraphic" in2="effect1_dropShadow_93_10" result="shape"/>
</filter>
</defs>
</svg>
